<!DOCTYPE svg PUBLIC "-//W3C//DTD SVG 1.1//EN" "http://www.w3.org/Graphics/SVG/1.1/DTD/svg11.dtd">
<!-- Uploaded to: SVG Repo, www.svgrepo.com, Transformed by: SVG Repo Mixer Tools -->
<svg width="64px" height="64px" viewBox="0 0 24 24" xmlns="http://www.w3.org/2000/svg" fill="#0091BE">
<g id="SVGRepo_bgCarrier" stroke-width="0"/>
<g id="SVGRepo_tracerCarrier" stroke-linecap="round" stroke-linejoin="round"/>
<g id="SVGRepo_iconCarrier"> <defs> <style>.cls-1{fill:#0091BE;}.cls-2{fill:#007399;}.cls-3{fill:#0091BE;}</style> </defs> <title>Icon_24px_QuantamEngine_Color</title> <g data-name="Product Icons"> <rect class="cls-1" x="7.01" y="2" width="2" height="3"/> <rect class="cls-1" x="11.01" y="2" width="2" height="3"/> <rect class="cls-1" x="15.01" y="2" width="2" height="3"/> <rect class="cls-2" x="7.01" y="19" width="2" height="3"/> <rect class="cls-2" x="11.01" y="19" width="2" height="3"/> <rect class="cls-2" x="15.01" y="19" width="2" height="3"/> <rect class="cls-2" x="19" y="15" width="3" height="2"/> <rect class="cls-2" x="19" y="11" width="3" height="2"/> <rect class="cls-2" x="19" y="7" width="3" height="2"/> <rect class="cls-1" x="2" y="15" width="3" height="2"/> <rect class="cls-1" x="2" y="11" width="3" height="2"/> <rect class="cls-1" x="2" y="7" width="3" height="2"/> <g data-name="colored-32/quantum-engine"> <g> <path class="cls-3" d="M11,13H9V7H7v8h4v3h2V15h4V7H15v6H13V6H11ZM4,20V4H20V20Z"/> </g> </g> </g> </g>
</svg>